<svg width="624" height="229" viewBox="0 0 624 229" fill="none" xmlns="http://www.w3.org/2000/svg">
<path d="M3.5 226.303C15.3333 182.137 56.7 109.403 127.5 171.803C216 249.803 246 185.803 266.5 139.303C287 92.8032 342 17.8032 403 102.303C464 186.803 506.5 166.303 531 122.803C555.5 79.3032 592 92.8032 622 102.303" stroke="#33404F" stroke-width="3" stroke-linecap="round" stroke-dasharray="10 10"/>
<path d="M2 227.5C9.66667 171.667 45.2 74.4 126 132C227 204 272 189 295 155C318 121 365.5 48.0001 435 94.0001C504.5 140 522 101.5 538.5 76C555 50.5 570 42 613.5 68" stroke="#00DDA3" stroke-width="3" stroke-linecap="round" stroke-dasharray="10 10"/>
<circle cx="340.5" cy="65" r="13" fill="#33404F"/>
<circle cx="567.5" cy="53" r="13" fill="#00DDA3"/>
<path d="M304.977 41.9922V40.0732C309.269 39.707 311.744 37.4658 311.744 33.877C311.744 30.8447 310.016 28.9844 306.339 28.0908L304.977 27.7832V21.4697C306.91 21.7041 308.229 22.9639 308.287 24.5752H311.349C311.261 21.3086 308.771 18.9941 304.977 18.6572V16.6357H302.97V18.6572C299.015 19.0234 296.612 21.2646 296.612 24.6484C296.612 27.5049 298.399 29.4678 301.666 30.3027L302.97 30.6396V37.3193C300.787 37.0703 299.381 35.8545 299.234 34.1113H296.129C296.144 37.5098 298.78 39.8096 302.97 40.0879V41.9922H304.977ZM308.624 34.2139C308.624 36.0742 307.291 37.2168 304.977 37.3486V31.0205C307.467 31.5186 308.624 32.5293 308.624 34.2139ZM299.747 24.3848C299.747 22.7881 301.095 21.5576 302.97 21.4551V27.3584C300.86 26.9336 299.747 25.8936 299.747 24.3848ZM321.251 40H324.532V18.8623H321.266L315.699 22.7881V26.1426L321.002 22.3926H321.251V40ZM331.578 40H335.021L344.22 21.8359V18.8623H329.82V21.7773H340.895V22.0117L331.578 40ZM356.231 40H359.396V35.9131H362.311V32.9834H359.396V18.8623H354.723C350.958 24.502 347.809 29.4092 345.919 32.8662V35.9131H356.231V40ZM349.068 32.8516C351.559 28.5303 353.99 24.7803 356.085 21.748H356.275V33.0566H349.068V32.8516Z" fill="#33404F"/>
<path d="M540.924 30.9922V29.0732C545.216 28.707 547.691 26.4658 547.691 22.877C547.691 19.8447 545.963 17.9844 542.286 17.0908L540.924 16.7832V10.4697C542.857 10.7041 544.176 11.9639 544.234 13.5752H547.296C547.208 10.3086 544.718 7.99414 540.924 7.65723V5.63574H538.917V7.65723C534.962 8.02344 532.56 10.2646 532.56 13.6484C532.56 16.5049 534.347 18.4678 537.613 19.3027L538.917 19.6396V26.3193C536.734 26.0703 535.328 24.8545 535.182 23.1113H532.076C532.091 26.5098 534.728 28.8096 538.917 29.0879V30.9922H540.924ZM544.571 23.2139C544.571 25.0742 543.238 26.2168 540.924 26.3486V20.0205C543.414 20.5186 544.571 21.5293 544.571 23.2139ZM535.694 13.3848C535.694 11.7881 537.042 10.5576 538.917 10.4551V16.3584C536.808 15.9336 535.694 14.8936 535.694 13.3848ZM561.856 29H565.021V24.9131H567.936V21.9834H565.021V7.8623H560.348C556.583 13.502 553.434 18.4092 551.544 21.8662V24.9131H561.856V29ZM554.693 21.8516C557.184 17.5303 559.615 13.7803 561.71 10.748H561.9V22.0566H554.693V21.8516ZM579.259 29.5127C583.814 29.5127 586.905 26.5391 586.905 22.1592C586.905 17.999 584.078 15.0693 580.064 15.0693C578.058 15.0693 576.563 15.7432 575.597 16.9883H575.348L575.904 10.792H585.675V7.8623H573.341L572.228 19.9619H575.23C576.051 18.5996 577.516 17.7939 579.332 17.7939C581.91 17.7939 583.697 19.5957 583.697 22.2471C583.697 24.8838 581.925 26.627 579.288 26.627C576.974 26.627 575.26 25.2646 575.011 23.2139H571.891C572.081 26.9199 575.055 29.5127 579.259 29.5127ZM595.929 29H599.21V7.8623H595.943L590.377 11.7881V15.1426L595.68 11.3926H595.929V29Z" fill="#00DDA3"/>
</svg>
